<svg width="25" height="24" viewBox="0 0 25 24" fill="none" xmlns="http://www.w3.org/2000/svg">
<path d="M17.0893 14.1428C16.8762 14.1428 16.6718 14.2275 16.5211 14.3782C16.3704 14.5289 16.2857 14.7333 16.2857 14.9464C16.2857 15.1595 16.3704 15.3639 16.5211 15.5146C16.6718 15.6653 16.8762 15.7499 17.0893 15.7499H19.7679C19.981 15.7499 20.1854 15.6653 20.3361 15.5146C20.4868 15.3639 20.5714 15.1595 20.5714 14.9464C20.5714 14.7333 20.4868 14.5289 20.3361 14.3782C20.1854 14.2275 19.981 14.1428 19.7679 14.1428H17.0893ZM0.214296 3.16066C0.214296 2.37922 0.524722 1.62978 1.07728 1.07722C1.62985 0.52466 2.37928 0.214233 3.16072 0.214233H17.625C18.4065 0.214233 19.1559 0.52466 19.7085 1.07722C20.261 1.62978 20.5714 2.37922 20.5714 3.16066V4.50852C21.5885 4.57647 22.5417 5.02843 23.2379 5.77285C23.9342 6.51727 24.3215 7.49851 24.3214 8.5178V19.7678C24.3214 20.8334 23.8981 21.8554 23.1446 22.6089C22.3911 23.3624 21.3692 23.7857 20.3036 23.7857H4.23644C3.17084 23.7857 2.14888 23.3624 1.39538 22.6089C0.64189 21.8554 0.218581 20.8334 0.218581 19.7678V8.5178H0.214296V3.42852H0.226081C0.218142 3.33945 0.214209 3.25008 0.214296 3.16066ZM20.3036 6.10709H1.82572V19.7678C1.82572 20.4072 2.07971 21.0203 2.53181 21.4724C2.9839 21.9245 3.59708 22.1785 4.23644 22.1785H20.3036C20.9429 22.1785 21.5561 21.9245 22.0082 21.4724C22.4603 21.0203 22.7143 20.4072 22.7143 19.7678V8.5178C22.7143 7.87844 22.4603 7.26527 22.0082 6.81317C21.5561 6.36108 20.9429 6.10709 20.3036 6.10709ZM18.9643 3.16066C18.9643 2.42138 18.3643 1.82138 17.625 1.82138H3.16072C2.80552 1.82138 2.46487 1.96248 2.21371 2.21364C1.96254 2.46481 1.82144 2.80546 1.82144 3.16066C1.82144 3.51586 1.96254 3.85652 2.21371 4.10768C2.46487 4.35884 2.80552 4.49995 3.16072 4.49995H18.9643V3.16066Z" fill="#B1B5C3"/>
</svg>
